<?xml version="1.0" encoding="UTF-8" standalone="no"?>
<!-- Created with Inkscape (http://www.inkscape.org/) -->

<svg
   xmlns:dc="http://purl.org/dc/elements/1.1/"
   xmlns:cc="http://creativecommons.org/ns#"
   xmlns:rdf="http://www.w3.org/1999/02/22-rdf-syntax-ns#"
   xmlns:svg="http://www.w3.org/2000/svg"
   xmlns="http://www.w3.org/2000/svg"
   xmlns:sodipodi="http://sodipodi.sourceforge.net/DTD/sodipodi-0.dtd"
   xmlns:inkscape="http://www.inkscape.org/namespaces/inkscape"
   width="210mm"
   height="297mm"
   viewBox="0 0 210 297"
   version="1.1"
   id="svg398"
   inkscape:version="0.92.4 (5da689c313, 2019-01-14)"
   sodipodi:docname="spark_logo_solid.svg"
   inkscape:export-filename="/home/oskuro/usb/Inkscape/spark_logo/spark_logo_gradient.svg.png"
   inkscape:export-xdpi="96"
   inkscape:export-ydpi="96">
  <defs
     id="defs392" />
  <sodipodi:namedview
     id="base"
     pagecolor="#ffffff"
     bordercolor="#666666"
     borderopacity="1.0"
     inkscape:pageopacity="0.0"
     inkscape:pageshadow="2"
     inkscape:zoom="0.70710678"
     inkscape:cx="146.2885"
     inkscape:cy="882.98725"
     inkscape:document-units="mm"
     inkscape:current-layer="layer2"
     showgrid="false"
     inkscape:pagecheckerboard="true"
     inkscape:window-width="1179"
     inkscape:window-height="1027"
     inkscape:window-x="1379"
     inkscape:window-y="26"
     inkscape:window-maximized="0"
     showguides="true"
     inkscape:guide-bbox="true"
     inkscape:snap-bbox="true" />
  <metadata
     id="metadata395">
    <rdf:RDF>
      <cc:Work
         rdf:about="">
        <dc:format>image/svg+xml</dc:format>
        <dc:type
           rdf:resource="http://purl.org/dc/dcmitype/StillImage" />
        <dc:title />
      </cc:Work>
    </rdf:RDF>
  </metadata>
  <g
     inkscape:label="Layer 1"
     inkscape:groupmode="layer"
     id="layer1"
     style="display:inline">
    <g
       id="g2091">
      <rect
         y="241.34866"
         x="-2.5044708"
         height="45"
         width="215"
         id="rect842"
         style="opacity:1;fill:black;fill-opacity:1;fill-rule:nonzero;stroke:#c90a00;stroke-width:2.5999999;stroke-linejoin:miter;stroke-miterlimit:4;stroke-dasharray:none;stroke-opacity:1" />
      <path
         inkscape:connector-curvature="0"
         d="m 10.452179,279.6151 c -2.3145761,-0.3904 -4.4681791,-1.33524 -5.7692331,-2.53068 -1.212261,-1.11387 -1.287753,-1.41155 -1.287753,-5.07798 v -3.19484 h 0.705323 c 0.625146,0 0.717558,0.0552 0.813238,0.4872 0.664243,2.99911 1.353133,4.61383 2.524271,5.91635 2.7330741,3.03983 9.2479131,3.25359 11.2679371,0.3696 0.417443,-0.59588 0.544971,-0.9918 0.600454,-1.86312 0.11884,-1.86799 -0.155039,-2.51087 -1.714032,-4.02427 -1.107302,-1.07484 -2.129308,-1.7824 -5.346929,-3.70155 -4.7287141,-2.82052 -6.2748431,-3.94923 -7.3270611,-5.34903 -1.15351,-1.53444 -1.434633,-2.50448 -1.434633,-4.95019 0,-1.94916 0.0264,-2.09488 0.581239,-3.22192 1.068653,-2.17023 3.357561,-3.71287 6.4082911,-4.31887 1.994359,-0.3964 5.860584,-0.2684 7.856971,0.2592 2.731003,0.72216 4.717279,1.9832 5.424413,3.44396 0.3322,0.68655 0.36972,1.08227 0.36972,3.89731 v 3.13323 h -0.757359 -0.757358 l -0.3366,-1.5348 c -0.69693,-3.17859 -2.241643,-5.43942 -4.402935,-6.44394 -4.923346,-2.2882 -9.9622071,0.4442 -8.7171701,4.72699 0.4685954,1.61192 1.5802731,2.54827 6.4741111,5.45315 2.286039,1.35691 4.72673,2.85643 5.423749,3.33223 1.480529,1.01068 3.055102,2.6016 3.566061,3.60307 0.518867,1.0172 0.814254,2.74592 0.692334,4.05183 -0.369719,3.95824 -3.072021,6.57519 -7.711684,7.46787 -1.394125,0.268 -5.71728,0.31 -7.145641,0.0688 z m 143.341101,-0.1672 c -1.99855,-0.3608 -3.85951,-1.61904 -5.54271,-3.74771 -0.61379,-0.77624 -2.33531,-3.44112 -3.82555,-5.92191 l -2.70959,-4.51067 h -0.8594 -0.85944 v 6.90978 6.90979 h -3.09623 -3.09624 l -0.0484,-13.33233 c -0.0452,-12.33038 -0.0724,-13.38629 -0.364,-14.05025 -0.37999,-0.86508 -1.05867,-1.29972 -2.25027,-1.4408 l -0.8894,-0.1052 v -0.77268 -0.77256 l 6.51119,0.002 c 7.23338,0.004 9.9429,0.1656 11.91493,0.71516 3.10748,0.8656 4.88275,2.1668 5.97687,4.38051 0.65508,1.32548 0.6672,1.38724 0.6672,3.39672 0,1.83915 -0.0468,2.14551 -0.46248,3.02119 -0.93328,1.96664 -2.59387,3.31243 -5.26791,4.26935 -0.85612,0.306 -1.3356,0.57004 -1.29972,0.71484 0.1,0.40376 4.94471,8.37694 5.77579,9.5059 0.9722,1.32072 2.5506,2.59471 3.59743,2.90387 0.7594,0.2244 0.7728,0.2416 0.72136,0.92856 -0.0452,0.60124 -0.1236,0.719 -0.55716,0.83412 -0.84867,0.2252 -3.16883,0.3184 -4.03623,0.1616 z m -8.63254,-16.65009 c 1.39916,-0.52696 2.46448,-1.52183 3.08335,-2.87939 0.45532,-0.9988 0.50868,-1.30604 0.50192,-2.88939 -0.008,-2.2038 -0.42804,-3.41788 -1.59003,-4.61375 -1.3754,-1.41516 -2.99228,-1.85904 -5.80999,-1.595 l -1.3494,0.1264 v 6.21207 6.21202 l 2.0818,-0.098 c 1.50127,-0.0708 2.36079,-0.2032 3.08235,-0.47488 z m 55.90737,16.63261 c -1.68188,-0.2324 -3.55528,-1.00456 -5.38503,-2.21964 -1.50988,-1.00271 -2.41688,-1.88143 -9.3971,-9.1045 l -1.45916,-1.50987 -0.002,6.24542 -0.002,6.24535 h -3.09415 -3.09416 l -0.0508,-13.24377 c -0.0508,-13.23162 -0.0512,-13.24454 -0.44176,-14.09057 -0.3088,-0.66868 -0.551,-0.91948 -1.15159,-1.192 -0.41832,-0.19 -1.0642,-0.3472 -1.43524,-0.3488 l -0.6746,-0.004 0.0544,-0.753 0.0544,-0.753 3.54347,0.002 c 3.24068,0.002 3.60407,0.032 4.25223,0.3696 0.77792,0.40416 1.39156,1.18728 1.70572,2.17684 0.1236,0.39 0.246,2.81407 0.312,6.19274 l 0.1088,5.55183 4.51799,-5.62139 c 2.88543,-3.59023 4.90203,-5.93518 5.58095,-6.48978 2.08059,-1.69964 3.88367,-2.26628 7.21986,-2.26884 l 1.72744,-0.002 v 0.86372 c 0,0.82564 -0.024,0.8686 -0.55368,0.97444 -0.3044,0.0608 -0.84984,0.1108 -1.21184,0.1108 -1.07703,0 -3.38623,0.67424 -4.41039,1.28776 -1.11759,0.66951 -1.79151,1.41211 -5.85423,6.45118 l -3.02547,3.75256 5.57371,5.81486 c 3.06559,3.1982 6.07439,6.23907 6.68623,6.75751 1.56983,1.33008 3.28139,2.43899 4.46099,2.89039 0.98671,0.3776 1.00911,0.40112 0.95703,1.01132 -0.0452,0.52532 -0.13799,0.64728 -0.58483,0.76732 -0.88204,0.2368 -3.64268,0.3128 -4.92595,0.1352 z m -91.27977,-0.3472 c -1.98918,-0.3992 -3.77902,-1.44684 -5.03409,-2.94635 -0.79525,-0.95012 -1.6282,-2.76112 -5.261977,-11.44074 -1.74305,-4.16343 -3.21545,-7.57178 -3.27199,-7.57422 -0.0565,-0.002 -0.39624,0.65331 -0.7544,1.45727 -0.35824,0.80396 -2.58434,5.74643 -4.94663,10.9833 l -4.29511,9.52162 -1.19591,0.002 c -0.84425,0.002 -1.19327,-0.0636 -1.18686,-0.22 0.004,-0.122 3.02568,-6.95858 6.71269,-15.19273 l 6.70351,-14.97125 h 1.1251 1.12511 l 5.082107,12.13646 c 2.79518,6.67506 5.37445,12.71285 5.73168,13.41737 0.79998,1.5778 2.2412,2.97399 3.38583,3.28011 0.73784,0.1976 0.77605,0.2392 0.77605,0.85736 0,0.58604 -0.0543,0.66068 -0.55368,0.76056 -0.74433,0.1488 -3.26241,0.106 -4.14143,-0.0704 z M 47.688743,266.18553 c 0,-13.90705 -0.022,-14.23733 -0.93361,-15.22513 -0.39096,-0.42272 -1.31501,-0.75004 -2.12264,-0.75168 -0.46078,-0.002 -0.4872,-0.0452 -0.4872,-0.81644 v -0.8154 l 7.83992,0.0884 c 8.41975,0.0948 9.08364,0.1572 11.55605,1.09028 2.92845,1.10496 4.52838,2.75303 5.32166,5.48175 0.22748,0.78276 0.28492,1.53364 0.23764,3.10459 -0.0596,1.97508 -0.0932,2.1346 -0.72114,3.40484 -0.84615,1.71183 -2.1559,2.97567 -3.93641,3.79831 -2.11399,0.97668 -3.16837,1.16616 -7.05407,1.26736 l -3.49919,0.0916 v 6.09182 6.09179 h -3.10054 -3.10056 z m 11.37594,-1.7972 c 1.25052,-0.471 2.4247,-1.70592 3.00471,-3.16011 0.35164,-0.88204 0.40286,-1.3248 0.40286,-3.49064 0,-3.06411 -0.32248,-4.07995 -1.74416,-5.49294 -1.36068,-1.35252 -3.20127,-1.77856 -6.01625,-1.39276 l -0.82199,0.1128 v 7.00038 7.00039 l 2.08178,-0.098 c 1.50942,-0.0712 2.35981,-0.2028 3.09305,-0.47888 z"
         style="display:inline;fill:#ff9600;fill-opacity:1;stroke-width:0.17717429"
         id="path822" />
    </g>
  </g>
  <g
     inkscape:groupmode="layer"
     id="layer2"
     inkscape:label="Layer 2"
     style="display:inline">
    <g
       id="g2100">
      <circle
         r="112.5"
         cy="111.33196"
         cx="104.99519"
         id="path840"
         style="display:inline;opacity:1;fill:black;fill-opacity:1;fill-rule:nonzero;stroke:#c90a00;stroke-width:2.5999999;stroke-linejoin:miter;stroke-miterlimit:4;stroke-dasharray:none;stroke-opacity:1" />
      <path
         inkscape:connector-curvature="0"
         id="path846"
         d="m 80.511433,213.95227 c -0.77872,-1.96692 -1.58116,-3.73691 -1.78312,-3.93331 -0.20184,-0.1964 -1.77062,-0.7658 -3.486,-1.26528 -10.3299,-3.00768 -21.83402,-8.85954 -31.14522,-15.84269 C 22.472922,176.69347 8.4140749,153.10848 4.3377469,126.21097 3.3275529,119.5451 3.0892619,107.99593 3.8195599,101.09448 5.9036599,81.399719 13.228965,63.517195 25.62316,47.867547 c 1.585888,-2.002476 4.111271,-4.74503 6.820273,-7.478104 3.36806,-3.397993 7.01988,-6.781347 9.5028,-8.709383 15.44652,-11.994255 32.44493,-19.015802 51.40425,-21.233559 5.66238,-0.6623985 17.585947,-0.6623985 23.248327,0 7.09981,0.830519 14.05828,2.388997 20.75047,4.629873 8.45542,2.831275 16.48572,6.751826 23.83891,11.669536 10.67206,7.137226 20.96255,17.295525 27.7569,27.400104 7.89274,11.738176 12.91213,23.594152 15.67565,37.026005 2.80071,13.612711 2.61531,29.053041 -0.5164,43.016331 -5.18715,23.12776 -18.93828,44.23783 -38.25212,58.72264 -11.23546,8.4263 -22.96208,13.91521 -37.66492,17.62996 -1.26548,0.32 -1.6222,0.66668 -3.5958,3.49732 -2.46883,3.54111 -2.98127,4.03835 -2.69691,2.61699 -0.076,-3.01591 -0.0896,-6.14543 -0.028,-8.8683 0.4016,-0.63828 2.45231,-0.685 4.14075,-1.03408 4.08631,-0.84476 9.83994,-2.62055 14.73193,-4.54687 33.00905,-12.99809 56.64932,-43.43819 61.05203,-78.61287 C 205.03658,97.666165 197.67599,71.489979 181.33979,50.861541 178.06015,46.72027 169.99977,38.605846 166.0221,35.441293 152.26633,24.497315 136.49852,17.596969 119.02367,14.873775 c -4.04999,-0.631079 -6.07333,-0.737319 -14.04627,-0.737319 -7.972897,0 -9.996287,0.106 -14.046267,0.737319 -17.47475,2.723194 -33.2426,9.62354 -46.99837,20.567518 C 39.955093,38.605846 31.894723,46.72027 28.615077,50.861541 6.7184939,78.511285 1.3545009,115.52571 14.538022,148.00077 c 10.018444,24.67851 30.000651,44.48811 54.677521,54.20524 4.10831,1.61776 11.56434,4.01171 12.49441,4.01171 0.39872,0 0.47968,0.9514 0.47968,5.65535 0,3.11048 -0.0588,5.65539 -0.12948,5.65539 -0.0715,0 -0.76689,-1.60928 -1.54565,-3.57619 z"
         style="display:inline;fill:#ff9600;fill-opacity:1;stroke-width:0.17717429" />
      <path
         sodipodi:nodetypes="ccsccsccccccccccccccccccsccscsccccccccccccccccccccccccccccccccscccccscscccccccssccccccccccscccsccccccssccscccccscccccccczcccccccccscsccc"
         inkscape:connector-curvature="0"
         id="path4692"
         d="m 93.331243,204.26117 c -2.52739,-1.57864 -4.3466,-4.54343 -4.7194,-7.69114 -0.10852,-0.91464 -0.34284,-1.66304 -0.5216,-1.66304 -0.62733,0 -2.52867,2.41668 -3.57746,4.54703 -0.74267,1.50851 -3.82191,4.05424 -3.82191,4.05424 0,0 -9.935971,-2.84718 -15.65434,-5.60299 -6.072877,-2.92666 -12.254851,-6.89984 -12.254851,-6.89984 0,0 2.113891,-1.25703 4.538231,-2.04959 2.4243,-0.79252 4.60866,-1.63063 4.85418,-1.86247 0.36584,-0.3452 -0.0411,-0.60636 -2.22932,-1.44328 -1.47162,-0.56196 -4.8551,-1.7114 -7.51884,-2.55436 -8.26706,-2.61607 -13.5497,-5.7703 -18.44791,-11.01529 -3.141158,-3.36352 -8.207948,-11.0207 -7.656997,-11.57162 0.09292,-0.0928 2.983962,0.7336 6.424627,1.8366 3.44069,1.10295 6.3318,1.92951 6.4247,1.83655 0.32228,-0.3224 -0.26308,-0.84996 -4.14543,-3.73779 -5.0887,-3.78487 -9.871526,-7.94334 -12.328093,-10.71854 -6.178148,-6.97954 -9.922336,-14.58129 -11.582013,-23.51467 -1.1786047,-6.34419 -3.3057451,-18.095 0.803839,-31.827798 0.407775,-1.362597 0.830846,1.320677 1.510088,5.541869 2.682283,12.632519 6.291192,21.585259 11.406981,28.044449 1.447153,1.82711 3.014834,3.45475 4.716275,4.90963 3.021123,2.58339 3.279313,2.24723 1.754384,-2.28408 -1.498293,-4.45203 -2.83639,-7.16802 -6.343271,-12.87485 -6.491915,-10.56458 -8.644622,-17.02603 -8.644622,-25.947253 0,-9.910819 3.490684,-19.26816 10.777066,-28.88954 1.397413,-1.845237 2.852462,-3.521793 3.233437,-3.725713 0.641387,-0.343199 0.677599,-0.300799 0.488963,0.573439 -3.317749,15.376249 -1.977428,29.15686 3.999336,41.120837 1.62778,3.25833 5.14793,8.55925 5.68392,8.55925 0.68192,0 0.54158,-3.78952 -0.25364,-6.84024 -0.37859,-1.45249 -1.51638,-4.811485 -2.52862,-7.464519 -4.5063,-11.810416 -5.28515,-15.477689 -5.00641,-23.572792 0.2528,-7.340785 1.62046,-12.503575 5.1906,-19.59352 1.44979,-2.879194 5.60504,-9.308981 6.48065,-10.02826 0.52218,-0.428879 0.55359,-0.361599 0.38888,0.831719 -0.98096,7.113585 -1.12085,15.749168 -0.32884,20.299918 1.9138,10.996058 7.83298,20.292359 18.11524,28.450822 5.98203,4.74647 7.66727,7.335145 7.92225,12.169272 0.18376,3.48836 -0.37487,5.259 -2.85632,9.04715 -5.65873,8.63906 -8.5324,17.14864 -8.94018,26.4743 -0.43039,9.8421 2.00296,19.385 6.33312,24.83663 2.77827,3.49776 7.40004,6.11499 17.73977,10.04558 4.14477,1.5756 5.31943,1.79856 6.40768,1.21612 0.97007,-0.51916 8.86639,-11.95754 11.829797,-17.1362 0.79903,-1.39636 0.18292,-0.8624 -3.838027,3.32659 -7.02696,7.32074 -8.02141,8.2327 -10.30372,9.44918 l -2.07234,1.10456 0.12332,-3.11452 c 0.12128,-3.06203 0.1784,-3.24903 3.38536,-11.09853 5.91285,-14.47265 6.78019,-17.39025 6.42594,-21.61552 -0.35844,-4.27539 -3.46072,-8.91238 -8.84982,-13.22777 l -1.4768,-1.18256 0.40984,-1.36828 c 0.55279,-1.84507 2.32198,-3.56639 3.94795,-3.84107 2.34541,-0.3964 5.61149,0.66572 8.88357,2.88843 3.617207,2.45716 5.836587,3.07816 8.026127,2.24568 1.72286,-0.65504 3.85736,0.74756 8.22114,5.40219 4.32495,4.61303 5.54462,5.41955 11.72173,7.75046 1.82972,0.69048 3.45379,1.3682 3.60903,1.50604 0.3508,0.3108 -0.1756,0.41504 -7.60106,1.50388 -3.29343,0.48288 -6.01576,0.90288 -6.04963,0.93335 -0.0328,0.032 1.33271,4.01968 3.03683,8.86491 2.84196,8.08038 3.0556,8.85842 2.58108,9.39962 -0.2844,0.3244 -0.624,0.4742 -0.75444,0.3328 -0.1304,-0.1412 -2.96382,-3.17656 -6.2964,-6.74439 -3.33259,-3.56787 -6.56735,-7.10078 -7.18838,-7.85094 -1.41555,-1.70988 -1.70687,-3.17932 -2.00284,-10.10234 -0.12536,-2.9334 -0.33172,-5.33351 -0.45809,-5.33351 -0.1266,0 -0.50105,0.2992 -0.8322,0.66536 -0.33132,0.366 -0.72697,0.66528 -0.87952,0.66528 -0.15252,0 -2.59809,-1.7312 -5.434567,-3.84712 -2.83647,-2.11591 -5.31322,-3.75067 -5.504,-3.63275 -0.2006,0.1236 0.41522,1.0374 1.45756,2.16324 3.68623,3.98159 5.51025,8.12414 5.78315,13.13437 0.26348,4.83895 -0.68298,8.66538 -5.01997,20.29276 l -0.86858,2.32867 1.73992,-1.87891 c 4.78706,-5.16943 10.021887,-10.59614 10.221547,-10.59614 0.12332,0 2.81612,2.73203 5.98383,6.07119 11.42422,12.04253 13.90745,14.43505 16.26589,15.67192 5.57715,2.92488 10.96113,2.06816 15.87188,-2.52563 3.67812,-3.44067 6.39535,-8.5939 7.67747,-14.56013 0.88048,-4.09747 0.7906,-13.34049 -0.1828,-18.76196 -1.3336,-7.43007 -4.57059,-15.18001 -8.54958,-20.4692 -2.28364,-3.03555 -2.53852,-3.51779 -2.82604,-5.34639 -0.511,-3.25056 1.01956,-7.987247 3.56575,-11.034801 0.66136,-0.791598 2.49316,-2.408155 4.0706,-3.592272 6.10046,-4.579511 11.76937,-11.179937 14.82129,-17.257005 4.07107,-8.106583 5.42007,-15.923447 4.40063,-25.501308 -0.70796,-6.652386 -0.781,-7.817704 -0.48988,-7.817704 0.3996,0 4.73687,6.746506 6.36331,9.8983 3.76023,7.286225 5.1985,12.580974 5.45702,20.088599 0.2596,7.541825 -0.19,9.78598 -4.59331,22.934273 -2.92359,8.729678 -3.62995,11.206998 -3.62995,12.732238 v 1.89368 l 0.79256,-0.51924 c 0.9454,-0.61944 3.41359,-3.72556 4.62223,-5.8168 2.28028,-3.945607 4.17151,-10.363034 5.09803,-17.29878 0.68152,-5.102029 0.75188,-15.931047 0.1444,-22.219714 -0.2352,-2.431995 -0.3536,-4.495431 -0.2636,-4.585391 0.2372,-0.237199 4.97247,6.025028 6.87399,9.090942 5.17007,8.335943 7.35006,15.296328 7.35006,23.468192 0,8.772422 -2.39491,16.227271 -8.45714,26.325251 -3.54427,5.90379 -5.39503,9.38318 -6.12827,11.52109 -0.79228,2.30992 -1.20064,4.96927 -0.763,4.96927 0.53532,0 6.49363,-6.00406 7.92323,-7.98406 4.86439,-6.73731 7.8759,-14.60593 10.08574,-26.352609 0.56055,-2.979514 1.09223,-5.754108 1.18163,-6.165747 0.1176,-0.540959 0.4008,-0.748519 1.02132,-0.748519 3.50611,15.504355 0.5586,32.295755 -0.1704,36.009355 -2.70747,12.29677 -8.76246,20.54175 -23.05559,31.39437 -2.53268,1.92304 -4.52563,3.62471 -4.42871,3.78151 0.0968,0.1568 1.33491,-0.076 2.75123,-0.51656 8.15606,-2.53903 9.4213,-2.88863 9.64478,-2.66519 0.426,0.42604 -2.90547,6.36587 -5.12951,9.14554 -3.56299,4.45319 -9.16994,8.5063 -15.66373,11.32282 -2.86815,1.244 -10.66849,3.91759 -13.62449,4.66991 -0.98448,0.2508 -1.34668,0.49524 -1.22028,0.8246 3.70471,1.97683 6.09078,2.64373 9.96135,3.74746 0,0 -7.43686,4.98716 -14.90048,8.3329 -7.46362,3.34574 -17.2762,5.51158 -17.2762,5.51158 0,0 1.61518,-8.48924 3.46677,-11.59144 1.10824,-1.85663 1.14524,-2.00359 0.5302,-2.10503 -1.24744,-0.206 -5.11095,1.25668 -7.60466,2.87867 -1.37228,0.89264 -3.89681,2.84656 -5.6101,4.34211 -3.62748,3.16643 -4.15685,3.49295 -5.22751,3.22423 -1.59152,-0.39959 -1.47811,-2.98535 0.39216,-8.93841 0.64381,-2.04944 1.40198,-4.77415 1.68483,-6.05487 0.72565,-3.28607 0.73112,-8.82546 0.0124,-11.20758 -0.64948,-2.14883 -2.4049,-4.26151 -3.54083,-4.26151 -0.69544,0 -0.67995,0.0552 0.28896,1.02356 2.45249,2.45255 0.39216,6.3845 -5.7961,11.0609 -7.876757,5.95238 -10.422977,10.83357 -9.498277,18.20839 0.55427,4.42016 0.48616,4.57412 -1.4798,3.34608 z"
         style="display:inline;fill:#ff9600;fill-opacity:1;stroke-width:0.17717429" />
      <path
         sodipodi:nodetypes="sccsccccscscccccccccs"
         inkscape:connector-curvature="0"
         id="circle877"
         d="m 104.96417,206.61987 c -8.392221,0 -16.530167,-1.08868 -24.276805,-3.12206 0,0 3.082748,-2.53528 3.825418,-4.04379 1.04879,-2.13035 2.95013,-4.54703 3.57746,-4.54703 0.17876,0 0.41308,0.7484 0.5216,1.66304 0.3728,3.14771 2.19201,6.1125 4.7194,7.69114 l 9.6e-4,1.2e-4 c 1.96596,1.22804 2.03407,1.07408 1.4798,-3.34608 -0.9247,-7.37482 1.62152,-12.25601 9.498277,-18.20839 6.18826,-4.6764 8.24859,-8.60835 5.7961,-11.0609 -0.96891,-0.96836 -0.9844,-1.02356 -0.28896,-1.02356 1.13593,0 2.89135,2.11268 3.54083,4.26151 0.71872,2.38212 0.71325,7.92151 -0.0124,11.20758 -0.28285,1.28072 -1.04102,4.00543 -1.68483,6.05487 -1.87027,5.95306 -1.98368,8.53882 -0.39216,8.93841 1.07066,0.26872 1.60003,-0.0578 5.22751,-3.22423 1.71329,-1.49555 4.23782,-3.44947 5.6101,-4.34211 2.49371,-1.62199 6.35722,-3.08467 7.60466,-2.87867 0.61504,0.10144 0.57804,0.2484 -0.5302,2.10503 -1.85159,3.1022 -3.4671,11.5964 -3.4671,11.5964 -6.67887,1.49354 -13.62257,2.27872 -20.74966,2.27872 z"
         style="opacity:1;fill:#c90a00;fill-opacity:1;fill-rule:nonzero;stroke:none;stroke-width:2.29882145;stroke-linejoin:round;stroke-miterlimit:4;stroke-dasharray:none;stroke-opacity:1" />
    </g>
  </g>
</svg>
